<svg xmlns:x="http://ns.adobe.com/Extensibility/1.0/" xmlns:i="http://ns.adobe.com/AdobeIllustrator/10.0/" xmlns:graph="http://ns.adobe.com/Graphs/1.0/" xmlns="http://www.w3.org/2000/svg" xmlns:xlink="http://www.w3.org/1999/xlink" version="1.1" x="0px" y="0px" viewBox="0 0 64 80" enable-background="new 0 0 64 64" xml:space="preserve"><metadata><sfw xmlns="http://ns.adobe.com/SaveForWeb/1.0/"><slices/><sliceSourceBounds x="-7865" y="-839" width="16383" height="837" bottomLeftOrigin="true"/></sfw></metadata><g><path d="M3,20h10.127h0.003c2.145,0,4.105-1.158,5.182-3h20.687v2c0,0.265,0.105,0.52,0.293,0.707S39.734,20,39.999,20H42v4   c0,0.552,0.448,1,1,1s1-0.448,1-1v-4h2c0.552,0,1-0.448,1-1v-9c0-0.552-0.448-1-1-1h-6c-0.552,0-1,0.448-1,1v1H18.314   c-1.073-1.837-3.037-3-5.188-3H3C2.448,8,2,8.448,2,9v10C2,19.552,2.448,20,3,20z M45,11v7h-4.001l0-4.667L41,12v0v-1H45z M39,13v2   H19.047c0.007-0.043,0.004-0.088,0.011-0.131c0.04-0.275,0.066-0.552,0.068-0.833c0-0.011,0.003-0.022,0.003-0.034   c0-0.01-0.002-0.019-0.002-0.029c-0.001-0.282-0.028-0.561-0.068-0.838c-0.006-0.044-0.003-0.09-0.011-0.134H39z M4,10h9.129   c1.584,0,3.026,0.944,3.668,2.392c0.219,0.515,0.33,1.056,0.33,1.607c-0.001,0.555-0.112,1.096-0.326,1.596   C16.155,17.056,14.714,18,13.13,18H4V10z"/><path d="M49.858,24.007c-0.013,0-0.023-0.007-0.036-0.007c-0.017,0-0.033,0.003-0.049,0.003c-0.019,0-0.037-0.003-0.055-0.003   c-2.612,0-5.099,0.889-7.096,2.52C40.63,24.889,38.146,24,35.531,24c-6.207,0-11.269,5.182-11.283,11.552   c-0.047,24.156,12.087,26.354,12.604,26.436C36.904,61.996,36.956,62,37.008,62c0.236,0,0.467-0.084,0.649-0.239   c0.223-0.19,0.351-0.468,0.351-0.761v-4c0-3.001,1.437-6.23,4.59-6.23c3.158,0,4.596,3.229,4.596,6.23l0.004,1.398   c0.004,0.948,0.008,1.9-0.004,2.584c-0.005,0.292,0.118,0.572,0.337,0.767s0.511,0.286,0.803,0.241   C48.851,61.917,61,59.917,61,35.554C61,29.231,56.015,24.085,49.858,24.007z M49.202,59.631c0-0.399-0.002-0.82-0.004-1.241   L49.193,57c0-3.964-2.064-8.23-6.596-8.23c-4.528,0-6.59,4.267-6.59,8.23v2.63c-2.816-1.217-9.795-6.051-9.76-24.074   C26.26,30.376,30.511,26,35.531,26c2.104,0,4.104,0.699,5.721,1.985c-0.153,0.18-0.314,0.352-0.457,0.542   c-0.331,0.442-0.241,1.069,0.201,1.4c0.18,0.135,0.39,0.2,0.599,0.2c0.304,0,0.605-0.138,0.801-0.4   c1.764-2.354,4.45-3.708,7.375-3.724C54.779,26.034,59,30.394,59,35.554C59,53.599,52.017,58.421,49.202,59.631z"/></g><text x="0" y="79" fill="#000000" font-size="5px" font-weight="bold" font-family="'Helvetica Neue', Helvetica, Arial-Unicode, Arial, Sans-serif">Created by Mask Icon</text><text x="0" y="84" fill="#000000" font-size="5px" font-weight="bold" font-family="'Helvetica Neue', Helvetica, Arial-Unicode, Arial, Sans-serif">from the Noun Project</text></svg>